<svg xmlns="http://www.w3.org/2000/svg" viewBox="0 0 960 310" width="960" height="310" font-family="-apple-system, BlinkMacSystemFont, 'Apple SD Gothic Neo', 'Malgun Gothic', 'Segoe UI', sans-serif">
  <defs>
    <marker id="ar" viewBox="0 0 10 10" markerWidth="7" markerHeight="7" refX="8" refY="5" orient="auto-start-reverse">
      <path d="M0,0 L10,5 L0,10 z" fill="#94a3b8"/>
    </marker>
    <marker id="arRed" viewBox="0 0 10 10" markerWidth="7" markerHeight="7" refX="8" refY="5" orient="auto-start-reverse">
      <path d="M0,0 L10,5 L0,10 z" fill="#dc2626"/>
    </marker>
    <marker id="arAmber" viewBox="0 0 10 10" markerWidth="7" markerHeight="7" refX="8" refY="5" orient="auto-start-reverse">
      <path d="M0,0 L10,5 L0,10 z" fill="#d97706"/>
    </marker>
  </defs>

  <rect x="0" y="0" width="960" height="310" fill="#ffffff"/>

  <text x="480" y="30" text-anchor="middle" font-size="22" font-weight="800" fill="#1a1a1a">⚡ Hook 동작 흐름</text>
  <text x="480" y="52" text-anchor="middle" font-size="13" fill="#5c6672">세션 이벤트에 끼어들어 규칙을 강제합니다</text>

  <!-- 로컬 세션 레인 -->
  <text x="32" y="120" font-size="12" fill="#a16207">로컬 세션 — 세션이 살아있는 동안</text>
  <rect x="30" y="125" width="900" height="90" rx="14" fill="#fffbeb" stroke="#f3e6c8" stroke-width="1"/>

  <!-- 단계 박스 -->
  <rect x="48" y="148" width="130" height="44" rx="10" fill="#ffffff" stroke="#e2cf9a" stroke-width="1"/>
  <text x="113" y="175" text-anchor="middle" font-size="14" font-weight="600" fill="#1f2937">사용자 메시지</text>

  <rect x="400" y="148" width="120" height="44" rx="10" fill="#ffffff" stroke="#e2cf9a" stroke-width="1"/>
  <text x="460" y="175" text-anchor="middle" font-size="14" font-weight="600" fill="#1f2937">도구 실행</text>

  <rect x="740" y="148" width="140" height="44" rx="10" fill="#ffffff" stroke="#e2cf9a" stroke-width="1"/>
  <text x="810" y="175" text-anchor="middle" font-size="14" font-weight="600" fill="#1f2937">턴 종료</text>

  <!-- 흐름 화살표 -->
  <line x1="182" y1="170" x2="396" y2="170" stroke="#94a3b8" stroke-width="2" marker-end="url(#ar)"/>
  <line x1="524" y1="170" x2="736" y2="170" stroke="#94a3b8" stroke-width="2" marker-end="url(#ar)"/>

  <!-- Hook 배지 -->
  <rect x="214" y="70" width="150" height="42" rx="10" fill="#d97706"/>
  <text x="289" y="88" text-anchor="middle" font-size="13" font-weight="700" fill="#ffffff">PreToolUse</text>
  <text x="289" y="104" text-anchor="middle" font-size="10" fill="#ffffff" fill-opacity="0.92">입력 검증 · 위험 명령 차단</text>
  <line x1="289" y1="112" x2="289" y2="146" stroke="#d97706" stroke-width="2" marker-end="url(#arAmber)"/>

  <rect x="555" y="70" width="150" height="42" rx="10" fill="#d97706"/>
  <text x="630" y="88" text-anchor="middle" font-size="13" font-weight="700" fill="#ffffff">PostToolUse</text>
  <text x="630" y="104" text-anchor="middle" font-size="10" fill="#ffffff" fill-opacity="0.92">lint · format · test</text>
  <line x1="630" y1="112" x2="630" y2="146" stroke="#d97706" stroke-width="2" marker-end="url(#arAmber)"/>

  <rect x="735" y="70" width="150" height="42" rx="10" fill="#d97706"/>
  <text x="810" y="88" text-anchor="middle" font-size="13" font-weight="700" fill="#ffffff">Stop</text>
  <text x="810" y="104" text-anchor="middle" font-size="10" fill="#ffffff" fill-opacity="0.92">보고서 · 저장 · 알림</text>
  <line x1="810" y1="112" x2="810" y2="146" stroke="#d97706" stroke-width="2" marker-end="url(#arAmber)"/>

  <!-- 차단 분기 -->
  <line x1="289" y1="215" x2="289" y2="247" stroke="#dc2626" stroke-width="2" marker-end="url(#arRed)"/>
  <rect x="139" y="250" width="300" height="42" rx="8" fill="#fef2f2" stroke="#fecaca" stroke-width="1"/>
  <text x="289" y="276" text-anchor="middle" font-size="11.5" font-weight="600" fill="#b91c1c">차단 시 → 종료코드 2 → Claude에 피드백</text>
</svg>
